<?xml version="1.0" standalone="no"?>
<!DOCTYPE svg PUBLIC "-//W3C//DTD SVG 20010904//EN"
 "http://www.w3.org/TR/2001/REC-SVG-20010904/DTD/svg10.dtd">
<svg version="1.0" xmlns="http://www.w3.org/2000/svg"
 width="2649.000000pt" height="1183.000000pt" viewBox="0 0 2649.000000 1183.000000"
 preserveAspectRatio="xMidYMid meet">

<g transform="translate(0.000000,1183.000000) scale(0.100000,-0.100000)"
fill="#ffffff" stroke="none">
<path d="M8365 8780 c-3219 -5 -3406 -7 -3505 -24 -489 -84 -865 -267 -1176
-571 -132 -130 -193 -204 -286 -343 -244 -370 -384 -790 -455 -1362 -25 -206
-25 -695 0 -865 68 -457 220 -798 474 -1066 261 -274 621 -440 1058 -489 68
-7 379 -10 969 -8 l870 3 41 203 c22 112 37 206 33 208 -5 3 -383 4 -841 3
-809 -3 -836 -2 -962 19 -336 55 -571 162 -754 344 -192 191 -301 419 -361
758 -41 233 -39 675 5 978 86 588 334 1076 705 1386 260 219 547 344 880 385
59 8 2891 11 9242 11 5037 0 9158 2 9158 5 0 7 81 399 86 418 5 16 -279 17
-5888 15 -3241 -2 -7423 -5 -9293 -8z"/>
<path d="M15395 8044 c-296 -46 -563 -177 -736 -362 -189 -201 -279 -465 -243
-711 20 -140 48 -232 109 -356 63 -129 127 -216 225 -309 139 -131 264 -212
617 -402 381 -205 488 -271 648 -400 189 -152 244 -229 266 -375 15 -95 -4
-197 -57 -307 -30 -62 -56 -96 -133 -172 -80 -79 -112 -103 -191 -142 -168
-85 -352 -118 -543 -98 -365 37 -664 211 -829 481 -72 118 -118 281 -118 415
l0 65 -42 -5 c-24 -4 -115 -13 -203 -21 -88 -8 -182 -18 -209 -21 l-48 -6 6
-72 c33 -352 150 -617 370 -840 224 -227 531 -365 926 -417 147 -19 455 -16
575 5 470 84 859 391 993 781 44 130 55 217 49 399 -4 132 -10 188 -26 244
-66 228 -226 408 -534 598 -51 32 -252 139 -447 239 -458 234 -649 353 -728
452 -100 127 -150 322 -119 469 21 100 56 161 127 228 207 191 509 263 811
192 384 -89 738 -429 739 -708 0 -27 2 -48 4 -48 17 0 392 31 435 36 l54 6 -6
71 c-11 147 -56 314 -122 450 -150 315 -432 516 -848 606 -229 50 -576 65
-772 35z"/>
<path d="M21525 7979 c-173 -25 -324 -118 -380 -235 -11 -21 -62 -226 -115
-454 l-95 -415 -203 -3 c-111 -1 -202 -6 -202 -10 0 -4 -16 -84 -35 -177 -19
-94 -35 -176 -35 -182 0 -10 49 -13 210 -13 179 0 210 -2 210 -15 0 -12 -98
-482 -450 -2155 -56 -264 -71 -316 -130 -428 -150 -289 -440 -452 -860 -482
-73 -6 -1805 -10 -4141 -10 l-4015 0 -36 -182 c-19 -101 -32 -186 -28 -191 3
-4 1921 -6 4261 -4 l4254 2 93 22 c51 12 123 32 160 44 314 104 569 329 718
634 84 174 50 30 529 2210 58 264 109 496 113 515 l8 35 492 3 c343 1 492 -1
492 -8 0 -6 -4 -30 -10 -53 -70 -294 -371 -1784 -386 -1907 -23 -200 118 -390
352 -473 110 -39 205 -49 383 -37 85 5 155 11 156 12 3 5 75 372 75 384 0 8
-52 10 -172 7 -166 -4 -175 -4 -218 19 -32 16 -52 36 -68 68 -22 42 -23 54
-19 170 3 75 13 161 26 215 17 74 136 613 323 1462 l31 143 236 2 235 3 38
175 c20 96 38 181 38 188 0 9 -53 12 -230 12 -177 0 -230 3 -230 13 0 6 38
202 83 435 l84 422 -231 0 -232 0 -78 -367 c-43 -203 -85 -398 -93 -435 l-15
-68 -478 0 -478 0 69 273 c39 149 74 289 80 310 10 39 57 99 93 120 14 8 107
14 296 17 l274 5 43 185 c23 102 42 191 43 198 0 9 -83 12 -387 11 -214 -1
-415 -5 -448 -10z"/>
<path d="M10300 7935 c0 -8 -110 -507 -116 -528 -5 -16 9 -17 233 -15 l238 3
51 241 c28 133 54 256 57 273 l7 31 -235 0 c-129 0 -235 -2 -235 -5z"/>
<path d="M7241 7617 c-35 -171 -74 -361 -87 -422 -13 -60 -118 -571 -234
-1135 -116 -564 -256 -1242 -311 -1507 -54 -264 -99 -486 -99 -492 0 -8 68
-11 224 -11 205 0 225 2 230 18 3 9 40 184 81 387 42 204 96 469 121 590 94
460 105 512 125 575 47 154 143 344 243 479 70 96 217 240 305 300 232 158
531 211 708 125 136 -66 202 -236 174 -450 -5 -45 -64 -319 -130 -610 -66
-291 -163 -718 -216 -949 -52 -231 -97 -430 -100 -442 l-5 -23 240 0 c220 0
240 1 240 17 0 10 13 74 30 143 16 69 81 350 144 625 287 1251 283 1229 273
1372 -24 334 -206 559 -522 645 -111 30 -416 32 -545 4 -216 -46 -379 -136
-547 -300 -65 -64 -112 -103 -109 -91 3 11 55 259 116 550 61 292 129 614 150
717 22 103 40 190 40 193 0 3 -107 5 -237 5 l-238 0 -64 -313z"/>
<path d="M18625 6885 c-210 -34 -422 -118 -610 -242 -139 -92 -336 -290 -434
-437 -147 -221 -251 -477 -293 -720 -29 -170 -22 -424 15 -571 125 -487 471
-813 958 -901 126 -23 371 -23 499 0 310 54 568 182 815 402 266 236 489 630
552 974 26 142 23 403 -5 537 -108 503 -429 835 -917 945 -120 27 -447 34
-580 13z m455 -409 c244 -68 417 -250 487 -514 22 -84 26 -118 26 -257 1 -248
-35 -402 -148 -630 -271 -547 -828 -809 -1250 -587 -127 67 -248 203 -309 349
-60 145 -71 204 -71 398 0 137 4 200 18 263 41 187 123 383 222 532 55 83 182
219 257 278 109 84 275 157 415 182 69 13 288 4 353 -14z"/>
<path d="M9976 6393 c-55 -263 -117 -563 -138 -668 -46 -226 -77 -376 -197
-955 -50 -239 -102 -491 -116 -560 -14 -69 -28 -133 -31 -142 -5 -17 10 -18
230 -18 l236 0 5 23 c3 12 48 225 99 472 52 248 183 869 290 1381 108 512 196
934 196 937 0 4 -107 7 -238 7 l-238 0 -98 -477z"/>
<path d="M11271 6833 c-5 -21 -172 -821 -370 -1778 -199 -957 -375 -1802 -391
-1878 -17 -76 -30 -142 -30 -148 0 -6 89 -8 238 -7 l237 3 37 180 c74 358 259
1249 264 1271 5 19 14 10 67 -67 215 -319 526 -469 866 -420 450 66 880 465
1107 1028 39 98 87 268 110 395 22 118 29 365 15 484 -57 466 -302 808 -672
936 -91 32 -99 33 -259 33 -143 0 -176 -3 -244 -23 -165 -48 -361 -161 -526
-303 l-83 -72 7 34 c19 93 66 346 66 357 0 9 -50 12 -215 12 l-214 0 -10 -37z
m1210 -359 c228 -68 393 -273 453 -564 110 -542 -185 -1204 -636 -1424 -99
-48 -175 -66 -284 -66 -293 0 -512 219 -591 592 -24 113 -23 348 1 478 65 342
251 664 486 842 76 58 202 122 280 142 76 20 223 20 291 0z"/>
<path d="M2981 3348 c-10 -49 -61 -320 -61 -325 0 -2 1655 -3 3679 -3 l3678 0
37 183 c20 100 36 185 36 190 0 4 -1656 7 -3679 7 l-3680 0 -10 -52z"/>
</g>
</svg>
